<svg xmlns="http://www.w3.org/2000/svg" version="1.1" xmlns:xlink="http://www.w3.org/1999/xlink" xmlns:svgjs="http://svgjs.dev/svgjs" viewBox="0 0 1422 800"><defs><linearGradient x1="50%" y1="0%" x2="50%" y2="100%" id="oooscillate-grad"><stop stop-color="hsl(205, 69%, 60%)" stop-opacity="1" offset="0%"></stop><stop stop-color="hsl(205, 69%, 80%)" stop-opacity="1" offset="100%"></stop></linearGradient></defs><g stroke-width="1.5" stroke="url(#oooscillate-grad)" fill="none" stroke-linecap="round"><path d="M 0 1378 Q 355.5 -45 711 400 Q 1066.5 845 1422 1378" opacity="0.09"></path><path d="M 0 1352 Q 355.5 -45 711 400 Q 1066.5 845 1422 1352" opacity="0.97"></path><path d="M 0 1326 Q 355.5 -45 711 400 Q 1066.5 845 1422 1326" opacity="0.88"></path><path d="M 0 1300 Q 355.5 -45 711 400 Q 1066.5 845 1422 1300" opacity="0.56"></path><path d="M 0 1274 Q 355.5 -45 711 400 Q 1066.5 845 1422 1274" opacity="0.88"></path><path d="M 0 1248 Q 355.5 -45 711 400 Q 1066.5 845 1422 1248" opacity="0.69"></path><path d="M 0 1222 Q 355.5 -45 711 400 Q 1066.5 845 1422 1222" opacity="0.86"></path><path d="M 0 1196 Q 355.5 -45 711 400 Q 1066.5 845 1422 1196" opacity="0.37"></path><path d="M 0 1170 Q 355.5 -45 711 400 Q 1066.5 845 1422 1170" opacity="0.55"></path><path d="M 0 1144 Q 355.5 -45 711 400 Q 1066.5 845 1422 1144" opacity="0.44"></path><path d="M 0 1118 Q 355.5 -45 711 400 Q 1066.5 845 1422 1118" opacity="0.33"></path><path d="M 0 1092 Q 355.5 -45 711 400 Q 1066.5 845 1422 1092" opacity="0.75"></path><path d="M 0 1066 Q 355.5 -45 711 400 Q 1066.5 845 1422 1066" opacity="0.99"></path><path d="M 0 1040 Q 355.5 -45 711 400 Q 1066.5 845 1422 1040" opacity="0.85"></path><path d="M 0 1014 Q 355.5 -45 711 400 Q 1066.5 845 1422 1014" opacity="0.89"></path><path d="M 0 988 Q 355.5 -45 711 400 Q 1066.5 845 1422 988" opacity="0.40"></path><path d="M 0 962 Q 355.5 -45 711 400 Q 1066.5 845 1422 962" opacity="0.55"></path><path d="M 0 936 Q 355.5 -45 711 400 Q 1066.5 845 1422 936" opacity="0.42"></path><path d="M 0 910 Q 355.5 -45 711 400 Q 1066.5 845 1422 910" opacity="0.12"></path><path d="M 0 884 Q 355.5 -45 711 400 Q 1066.5 845 1422 884" opacity="0.14"></path><path d="M 0 858 Q 355.5 -45 711 400 Q 1066.5 845 1422 858" opacity="0.26"></path><path d="M 0 832 Q 355.5 -45 711 400 Q 1066.5 845 1422 832" opacity="0.66"></path><path d="M 0 806 Q 355.5 -45 711 400 Q 1066.5 845 1422 806" opacity="0.85"></path><path d="M 0 780 Q 355.5 -45 711 400 Q 1066.5 845 1422 780" opacity="0.15"></path><path d="M 0 754 Q 355.5 -45 711 400 Q 1066.5 845 1422 754" opacity="0.34"></path><path d="M 0 728 Q 355.5 -45 711 400 Q 1066.5 845 1422 728" opacity="0.08"></path><path d="M 0 702 Q 355.5 -45 711 400 Q 1066.5 845 1422 702" opacity="0.18"></path><path d="M 0 676 Q 355.5 -45 711 400 Q 1066.5 845 1422 676" opacity="0.89"></path><path d="M 0 650 Q 355.5 -45 711 400 Q 1066.5 845 1422 650" opacity="0.07"></path><path d="M 0 624 Q 355.5 -45 711 400 Q 1066.5 845 1422 624" opacity="0.99"></path><path d="M 0 598 Q 355.5 -45 711 400 Q 1066.5 845 1422 598" opacity="0.79"></path><path d="M 0 572 Q 355.5 -45 711 400 Q 1066.5 845 1422 572" opacity="0.35"></path><path d="M 0 546 Q 355.5 -45 711 400 Q 1066.5 845 1422 546" opacity="0.21"></path><path d="M 0 520 Q 355.5 -45 711 400 Q 1066.5 845 1422 520" opacity="0.71"></path><path d="M 0 494 Q 355.5 -45 711 400 Q 1066.5 845 1422 494" opacity="0.18"></path><path d="M 0 468 Q 355.5 -45 711 400 Q 1066.5 845 1422 468" opacity="0.69"></path><path d="M 0 442 Q 355.5 -45 711 400 Q 1066.5 845 1422 442" opacity="0.97"></path><path d="M 0 416 Q 355.5 -45 711 400 Q 1066.5 845 1422 416" opacity="0.24"></path><path d="M 0 390 Q 355.5 -45 711 400 Q 1066.5 845 1422 390" opacity="0.54"></path><path d="M 0 364 Q 355.5 -45 711 400 Q 1066.5 845 1422 364" opacity="0.81"></path><path d="M 0 338 Q 355.5 -45 711 400 Q 1066.5 845 1422 338" opacity="0.98"></path><path d="M 0 312 Q 355.5 -45 711 400 Q 1066.5 845 1422 312" opacity="0.76"></path><path d="M 0 286 Q 355.5 -45 711 400 Q 1066.5 845 1422 286" opacity="0.78"></path><path d="M 0 260 Q 355.5 -45 711 400 Q 1066.5 845 1422 260" opacity="0.99"></path><path d="M 0 234 Q 355.5 -45 711 400 Q 1066.5 845 1422 234" opacity="0.73"></path><path d="M 0 208 Q 355.5 -45 711 400 Q 1066.5 845 1422 208" opacity="0.82"></path><path d="M 0 182 Q 355.5 -45 711 400 Q 1066.5 845 1422 182" opacity="0.84"></path><path d="M 0 156 Q 355.5 -45 711 400 Q 1066.5 845 1422 156" opacity="0.81"></path><path d="M 0 130 Q 355.5 -45 711 400 Q 1066.5 845 1422 130" opacity="0.20"></path><path d="M 0 104 Q 355.5 -45 711 400 Q 1066.5 845 1422 104" opacity="0.92"></path><path d="M 0 78 Q 355.5 -45 711 400 Q 1066.5 845 1422 78" opacity="0.30"></path><path d="M 0 52 Q 355.5 -45 711 400 Q 1066.5 845 1422 52" opacity="0.22"></path></g></svg>