<svg xmlns="http://www.w3.org/2000/svg" version="1.1" xmlns:xlink="http://www.w3.org/1999/xlink" xmlns:svgjs="http://svgjs.dev/svgjs" viewBox="0 0 600 600"><path d="M67.14659881591797,476.7015686035156C65.57591883341472,476.1780090332031,75.39267349243164,463.7434539794922,90.7068099975586,450C106.02094650268555,436.2565460205078,141.4921506245931,412.6963399251302,159.0314178466797,394.2408447265625C176.57068506876627,375.7853495279948,182.5916290283203,357.46074930826825,195.94241333007812,339.26702880859375C209.29319763183594,321.07330830891925,225.5235595703125,306.9371617635091,239.13612365722656,285.0785217285156C252.74868774414062,263.21988169352215,268.4554926554362,229.5811538696289,277.6177978515625,208.1151885986328C286.7801030476888,186.64922332763672,288.74346415201825,170.15707651774088,294.1099548339844,156.28273010253906C299.4764455159505,142.40838368733725,306.02092997233075,126.57068125406902,309.8167419433594,124.86911010742188C313.612553914388,123.16753896077473,310.47121175130206,131.28272755940756,316.88482666015625,146.07330322265625C323.29844156901044,160.86387888590494,339.00523885091144,192.2774861653646,348.2984313964844,213.61256408691406C357.5916239420573,234.94764200846353,363.2198994954427,255.1047134399414,372.64398193359375,274.0837707519531C382.0680643717448,293.06282806396484,390.05235290527344,307.8533986409505,404.8429260253906,327.4869079589844C419.6334991455078,347.12041727701825,445.6806131998698,373.16754659016925,461.3874206542969,391.88482666015625C477.09422810872394,410.60210673014325,485.7329864501953,426.1780242919922,499.0837707519531,439.79058837890625C512.4345550537109,453.4031524658203,533.1151682535807,465.4450276692708,541.4921264648438,473.5602111816406C549.8690846761068,481.67539469401044,560.7329508463541,495.0261942545573,549.3455200195312,488.481689453125C537.9580891927084,481.9371846516927,496.59685770670575,451.04710896809894,473.16754150390625,434.2931823730469C449.73822530110675,417.5392557779948,431.6753845214844,403.66493225097656,408.7696228027344,387.9581298828125C385.8638610839844,372.25132751464844,359.8167368570964,356.67540486653644,335.73297119140625,340.0523681640625C311.6492055257161,323.42933146158856,286.12566630045575,301.8324788411458,264.26702880859375,288.21990966796875C242.40839131673178,274.6073404947917,227.22512817382812,267.6701482137044,204.58114624023438,258.376953125C181.93716430664062,249.08375803629556,161.12564929326376,239.52880096435547,128.40313720703125,232.4607391357422C95.68062512079874,225.3926773071289,10.340313275655111,218.58638509114584,8.246073722839355,215.9685821533203C6.1518341700236,213.35077921549478,80.4973848660787,215.3141301472982,115.83769989013672,216.75392150878906C151.17801491419473,218.19371287027994,179.7120501200358,221.9895273844401,220.2879638671875,224.60733032226562C260.8638776143392,227.22513326009116,317.14658610026044,230.3664983113607,359.2931823730469,232.4607391357422C401.4397786458333,234.5549799601237,445.6806284586589,236.1256561279297,473.16754150390625,237.1727752685547C500.6544545491536,238.2198944091797,512.3036702473959,238.8743438720703,524.2146606445312,238.7434539794922C536.1256510416666,238.61256408691406,539.1360982259115,236.2565460205078,544.6334838867188,236.38743591308594C550.130869547526,236.51832580566406,566.7539469401041,235.34031422932944,557.198974609375,239.52879333496094C547.6440022786459,243.71727244059244,505.8900400797526,254.05757904052734,487.30364990234375,261.518310546875C468.7172597249349,268.97904205322266,467.670160929362,273.42930603027344,445.6806335449219,284.2931823730469C423.69110616048175,295.1570587158203,380.8900451660156,312.1727701822917,355.3664855957031,326.7015686035156C329.8429260253906,341.23036702473956,317.5392761230469,357.5916290283203,292.5392761230469,371.4659729003906C267.5392761230469,385.34031677246094,237.4345499674479,396.33506774902344,205.36648559570312,409.9476318359375C173.29842122395834,423.56019592285156,123.16753768920898,442.0157012939453,100.13088989257812,453.141357421875C77.09424209594727,464.2670135498047,68.71727879842122,477.2251281738281,67.14659881591797,476.7015686035156C65.57591883341472,476.1780090332031,75.39267349243164,463.7434539794922,90.7068099975586,450" fill="hsl(230, 55%, 50%)"></path></svg>